<svg width="199mm" height="262mm" version="1.1" viewBox="0 0 199 262" xmlns="http://www.w3.org/2000/svg">
 <g transform="translate(-6.24 -16.9)">
  <path d="m48.6 276c-0.89-7.47-1.48-14.5-1.95-23.4-0.199-3.74-0.199-17.8-5.6e-4 -20.7 0.293-4.17 0.665-7.34 1.21-10.3l0.272-1.48-0.899-1.26c-2.01-2.82-4.19-6.83-5.54-10.2-2.04-5.07-3.24-10-3.79-15.7-0.208-2.15-0.173-7.67 0.0618-9.88 0.667-6.27 2.07-11.5 4.64-17.3 0.406-0.912 0.719-1.68 0.695-1.7-0.0238-0.0224-0.952-0.492-2.06-1.04-6.64-3.29-12.1-6.86-16.8-11l-0.842-0.737-0.0686 1-1.98-2.55c-1.09-1.41-2.23-2.88-2.55-3.28-2.83-3.59-5.71-8.06-7.59-11.8-4.83-9.54-6.25-18.5-4.29-27.3 1.83-8.18 7.13-15.8 14.9-21.4 4.2-3.01 9.06-5.22 13.9-6.29 2.66-0.59 3.65-0.688 7.02-0.689 3.35-0.0015 4.01 0.059 6.79 0.616 3.67 0.736 7.62 2.27 11.4 4.41l0.89 0.506 0.691-1.47c5.42-11.6 14.5-19.5 26.4-22.9 4.41-1.28 10.6-2.07 15.2-1.94l1.32 0.0373 0.121-0.449c0.31-1.15 1.35-5.7 1.71-7.46 0.58-2.86 0.775-4.36 0.788-6.05l0.0121-1.51-1.01-0.2c-5.11-1.01-9.31-4.99-10.6-10.1-0.316-1.22-0.39-3.18-0.169-4.45 0.915-5.23 5.01-9.55 10.3-10.8 1.23-0.303 3.58-0.33 4.8-0.0549 5.17 1.16 9.46 5.54 10.4 10.7 0.99 5.22-2.08 10.9-7.32 13.6-0.686 0.35-1.15 0.654-1.15 0.754-9e-5 0.0926 0.103 0.699 0.23 1.35 0.719 3.69 0.741 6.35 0.1 12.1-0.125 1.12-0.275 2.33-0.333 2.69-0.0577 0.355-0.0934 0.656-0.0793 0.669 0.0141 0.013 0.809 0.157 1.77 0.32 12.9 2.19 27.1 8.11 37.4 15.6 0.914 0.661 1.68 1.2 1.7 1.2 0.0229 0 0.359-0.442 0.746-0.982 4.42-6.16 6.97-8.93 10.5-11.4l0.884-0.62-0.372-0.811c-0.888-1.93-1.25-3.75-1.15-5.74 0.284-5.42 4.52-10.5 10-11.9 0.956-0.256 1.31-0.293 2.83-0.293 1.52 0 1.88 0.0367 2.84 0.294 2.31 0.618 4.26 1.77 6.09 3.61 1.84 1.84 2.99 3.78 3.61 6.09 0.261 0.972 0.294 1.3 0.292 2.89-2e-3 1.47-0.0462 1.95-0.238 2.66-0.657 2.41-1.86 4.49-3.64 6.27-3.81 3.82-9.01 4.93-13.7 2.92-0.944-0.407-2.66-1.44-2.92-1.75-0.0749-0.0903-0.206-0.164-0.291-0.164-0.176 0-1.48 1.35-2.31 2.38-1.15 1.43-3.66 5.46-6.03 9.67l-1.26 2.23 0.666 0.647c1.61 1.57 3.88 4.25 5.43 6.41 1.97 2.76 4.19 6.87 5.3 9.81 3.58 9.54 3.49 19.5-0.294 30l-0.388 1.08 1.19 0.131c9.64 1.06 17.7 4.74 23.5 10.8 4.72 4.88 7.81 11 9.29 18.3 1.83 9.07 0.626 18-3.39 25.2-1.62 2.9-3.23 5.01-5.81 7.58-3.22 3.22-6.46 5.49-10.9 7.7-4.05 1.99-8.35 3.46-13.6 4.65-4.49 1.01-7.34 1.34-11.7 1.34-6.97-1e-3 -14.8-1.38-23-4.04-0.978-0.318-1.81-0.552-1.84-0.519-0.0326 0.0326-0.297 0.756-0.588 1.61-2.42 7.1-6.31 13.7-11.5 19.4-1.08 1.2-1.25 1.35-1.67 1.42-0.387 0.0654-0.667 0.266-1.65 1.18-7.98 7.43-17.9 12.2-28.5 13.7-0.85 0.12-1.56 0.233-1.58 0.251-0.017 0.0185-0.373 0.539-0.791 1.16-5.68 8.39-17.2 20.5-31.2 32.8-3.08 2.7-8.09 6.91-8.22 6.91-0.0517 0-0.258-1.38-0.458-3.06zm41.3-43.5c0.803-0.0952 2.27-0.33 3.26-0.522 6.01-1.17 11.6-3.55 16.8-7.23l1.29-0.898-0.872-0.025c-14.4-0.414-28.8-4.16-42.8-11.1-8.58-4.28-15.9-9.34-22.4-15.4l-1.55-1.46 0.0719 0.439c0.47 2.87 1.05 5.26 1.86 7.7 4.46 13.4 14.8 23.4 28.2 27.2 2.69 0.771 6.19 1.39 8.89 1.56 1.35 0.0882 5.76-0.0393 7.18-0.208zm75.4-33.5c14.4-2.13 24.8-7.48 30.2-15.5 1.76-2.63 3.18-6.01 3.84-9.12 0.882-4.18 0.901-8.81 0.0557-13.7-1.77-10.3-6.89-17.8-14.9-21.9-4.03-2.05-8.17-3.12-13.9-3.59-2.28-0.189-2.06-0.258-2.63 0.812-7.06 13.2-19.2 23.4-33.5 28.2-0.802 0.266-1.48 0.498-1.51 0.515-0.0258 0.0176 9e-3 0.196 0.0767 0.397 0.0679 0.201 0.4 1.17 0.738 2.16 1.58 4.62 2.47 9.29 2.78 14.6 0.184 3.19-0.045 7.67-0.553 10.8l-0.201 1.25 0.731-0.137-0.161 0.534c-0.0884 0.294-0.161 0.6-0.161 0.68 0 0.09 0.621 0.343 1.61 0.656 6.07 1.92 11.6 3.14 16.3 3.59 2.78 0.265 2.87 0.268 5.95 0.227 2.47-0.0331 3.18-0.0846 5.16-0.377zm-39.1-3.26c1.08-0.132 2.29-0.3 2.69-0.375l0.727-0.136 0.199-0.841c0.308-1.3 0.726-3.81 0.944-5.67 0.276-2.36 0.279-7.99 4e-3 -10.2-0.541-4.37-1.47-8.22-2.84-11.7-0.3-0.765-0.339-0.815-0.602-0.749-0.744 0.187-4.3 0.733-5.95 0.914-2.31 0.254-9.13 0.289-11.3 0.0582-9.87-1.03-18.6-4.15-26.7-9.49-4.66-3.1-8.84-6.88-12.6-11.4-0.615-0.741-1.15-1.36-1.19-1.38-0.105-0.0438-2.9 1.56-4.15 2.39-4.4 2.89-8.58 6.83-11.8 11.1-1.44 1.92-2.93 4.21-2.84 4.36 1.2 2.08 4.94 6.5 7.64 9 5.98 5.56 12.2 9.78 20.5 13.9 11.6 5.76 24.1 9.42 35.2 10.3 0.864 0.0668 1.8 0.14 2.08 0.163 0.278 0.0229 2.2 0.0263 4.27 7e-3 2.99-0.0272 4.16-0.0834 5.72-0.274zm-4.15-34.4c10.8-1.33 20.2-5.43 28.4-12.4 2.53-2.16 5.69-5.54 7.75-8.29 4.65-6.19 8.22-14 9.62-21.2 0.567-2.89 0.678-4.12 0.679-7.46 1e-3 -3.36-0.0991-4.41-0.683-7.18-2.96-14.1-15.4-26.1-35.3-34.3-11.7-4.82-22.9-7.13-32.1-6.62-2.8 0.156-4.35 0.344-6.64 0.804-12.7 2.56-22 10.7-27.3 24.1-2.06 5.2-3.26 10.4-3.73 16.2-0.169 2.06-0.0691 7.58 0.174 9.6 1.31 10.9 5.63 20.7 12.6 28.6 9.06 10.3 22 16.9 36 18.2 2.23 0.212 8.35 0.148 10.4-0.109zm-19.3-9.87c-4.82-1.02-8.11-5.77-9.34-13.5-0.215-1.35-0.248-2.02-0.253-5.04-6e-3 -3.65 0.0585-4.5 0.572-7.46 0.155-0.895 0.29-1.7 0.301-1.78 0.0126-0.104-0.308-0.249-0.973-0.439l-0.992-0.284 4.61-4.61c2.54-2.54 4.61-4.65 4.61-4.7 0-0.046-0.0904-0.0837-0.201-0.0837-0.412 0-1.56-0.356-2.35-0.724-4.06-1.92-6.7-6.42-7.09-12.1-0.258-3.7 0.445-7.21 2.12-10.6 2.7-5.41 7.79-9.45 12.9-10.2 1.39-0.209 2.23-0.21 3.41-0.0028 3.38 0.59 6.06 2.69 7.83 6.12 0.811 1.58 1.14 2.47 1.53 4.21 0.402 1.76 0.501 4.5 0.237 6.49-0.097 0.733-0.191 1.35-0.208 1.36-0.0177 0.0156-0.439 0.232-0.936 0.48l-0.904 0.452-3.02 0.134c-1.66 0.0735-3.04 0.149-3.06 0.169-0.0204 0.0193 1.11 1.4 2.51 3.08 1.82 2.17 2.52 3.08 2.44 3.18-2.6 3.42-4.75 5.33-7.5 6.65-1.72 0.824-3.03 1.18-5.49 1.49l-0.662 0.0834-0.81 2.83c-0.696 2.43-0.784 2.84-0.629 2.89 0.0992 0.0298 5.48 1.58 12 3.44 6.48 1.86 11.8 3.4 11.8 3.43 0.0733 0.0714-0.518 2.15-1.23 4.31-1.61 4.89-3.78 9.06-6.73 12.9-1.13 1.47-3.97 4.27-5.27 5.19-1.36 0.962-3.47 2.02-4.77 2.39-1.25 0.358-3.31 0.462-4.43 0.224zm27.6-26.4c-3.6-0.41-6.62-2.67-8.45-6.35-0.498-0.997-1.11-2.83-1.37-4.09-1.54-7.55 1.48-15.5 7.65-20.2 1.92-1.45 3.68-2.32 5.93-2.92 0.908-0.242 1.32-0.285 2.75-0.29 1.76-0.0063 2.41 0.101 3.76 0.623 3.57 1.38 6.38 5.17 7.41 10 0.373 1.75 0.421 4.36 0.124 6.63-0.13 0.994-0.236 1.84-0.236 1.88s-0.606 0.0731-1.35 0.0731c-1.41 0-6.43 0.219-6.49 0.283-0.029 0.0281 3.69 4.52 4.89 5.91 0.151 0.174 0.0784 0.304-0.772 1.39-2.36 3.02-5.1 5.1-8.16 6.22-1.75 0.64-4.11 0.966-5.69 0.787zm-83.4 33c3.39-5.01 7.68-9.53 12.5-13.2 1.52-1.15 4.17-2.88 5.79-3.78 0.713-0.398 1.3-0.755 1.3-0.794 1e-3 -0.0392-0.323-0.603-0.721-1.25-4.65-7.6-7.58-16.5-8.5-25.8-0.192-1.94-0.192-8.54-9e-5 -10.4 0.439-4.23 1.09-7.6 2.18-11.3 0.386-1.3 0.436-1.57 0.303-1.66-4.32-2.76-8.1-4.33-12.1-5.04-2.69-0.476-6.6-0.423-9.34 0.128-6.28 1.26-12.9 5.02-18.1 10.3-4.68 4.75-7.18 9.4-8.25 15.3-0.287 1.59-0.4 5.24-0.216 7.03 0.77 7.51 4.25 15.3 10.6 23.7 1.81 2.4 3.42 4.21 5.14 5.79 3.51 3.21 7.11 5.81 11.9 8.59 1.48 0.854 6.51 3.45 6.68 3.45 0.0425 0 0.424-0.513 0.849-1.14zm133-93.9c1.81-0.425 3.48-1.69 4.24-3.19 0.623-1.25 0.847-2.39 0.789-4.03-0.041-1.16-0.105-1.57-0.357-2.31-1.03-2.99-3.51-4.54-7.06-4.41-1.15 0.0418-1.52 0.103-2.34 0.389-2.02 0.704-3.34 2.05-4.03 4.08-0.344 1.02-0.435 3.42-0.172 4.54 0.589 2.51 2.38 4.34 4.84 4.93 0.909 0.22 3.16 0.223 4.09 5e-3zm-68.5-27.3c2.43-0.573 4.25-2.45 4.81-4.96 0.281-1.26 0.178-3.51-0.211-4.62-1.02-2.91-3.68-4.54-7.14-4.36-2.11 0.106-3.69 0.8-4.93 2.17-1.13 1.24-1.69 2.86-1.69 4.91-7e-3 3.83 2.16 6.46 5.78 7.03 0.841 0.132 2.47 0.0531 3.39-0.163z" stroke-width=".112"/>
 </g>
</svg>
