<svg xmlns="http://www.w3.org/2000/svg" xmlns:xlink="http://www.w3.org/1999/xlink" viewBox="0 0 102 55"><defs><path id="a" d="M.252.42H13.7V26.2H.252z"/><path id="c" d="M.002.282H27.1V27.4H.002z"/></defs><g fill="none" fill-rule="evenodd"><path fill="#42B7BA" d="M23.1 13.581c0-5.27-4.27-9.54-9.54-9.54s-9.54 4.27-9.54 9.54 4.27 9.54 9.54 9.54 9.54-4.27 9.54-9.54"/><g transform="translate(27 .281)"><mask id="b" fill="#fff"><use xlink:href="#a"/></mask><path fill="#5D2B83" d="M.252 1.21v24.2c0 .7.847 1.05 1.34.556l11.7-11.7a1.315 1.315 0 0 0 0-1.86L1.592.706C1.095.208.242.561.242 1.264" mask="url(#b)"/></g><g transform="translate(0 27.281)"><mask id="d" fill="#fff"><use xlink:href="#c"/></mask><path fill="#EC662A" d="M27.1 26.9V1.3A1.04 1.04 0 0 0 26.06.26H.46a.512.512 0 0 0-.362.874l26.1 26.1a.512.512 0 0 0 .874-.362" mask="url(#d)"/></g><path fill="#1B2944" d="M48.4 54.081c-.153.345-.537.575-.92.575s-.766-.23-.919-.575l-11.8-25.9c-.115-.269.114-.614.421-.614h5.48c.42 0 .803.269.957.652l5.86 14.6 5.86-14.6c.153-.383.536-.652.957-.652h5.48c.307 0 .536.345.383.614l-11.8 25.9zm24-.4a.685.685 0 0 1-.689.689h-4.75a.685.685 0 0 1-.689-.689v-25.4c0-.382.306-.689.689-.689h4.75c.382 0 .689.307.689.689v25.4zm23-7.5c0-.805-.382-2.49-3.03-2.57h-4.63v5.02h4.56c2.68 0 3.1-1.84 3.1-2.45m0-10.5c0-.613-.421-2.53-3.1-2.53h-4.56v5.32h4.63c2.64-.076 3.03-2.07 3.03-2.8m6.21 10.5c0 3.64-2.26 8.16-9.69 8.16h-9.58a.687.687 0 0 1-.689-.69v-25.4c0-.385.306-.691.689-.691h9.58c7.43 0 9.69 4.56 9.69 8.2 0 1.84-1.42 4.33-3.45 5.17 1.99.766 3.45 2.87 3.45 5.29"/></g></svg>