<svg xmlns="http://www.w3.org/2000/svg" fill="none" viewBox="0 0 600 300"><g clip-path="url(#a)"><path fill="#1B2944" d="M0 0h600v300H0z"/><path fill="#1B2944" d="M0 0h600v300H0z"/><path fill="#1CBBBA" d="M330 154s0-.246-.038-.739c-.038-.494 0-1.23-.102-2.18a45.644 45.644 0 0 0-1.32-8.27 44.076 44.076 0 0 0-1.91-5.75 43.478 43.478 0 0 0-3.18-6.45 46.555 46.555 0 0 0-11.7-13c-8.94-6.74-20.1-10-31.2-9.18-2.07.149-4.13.436-6.17.86-2.09.447-4.14 1.03-6.15 1.74-8.56 3.1-16 8.64-21.4 15.9a44.064 44.064 0 0 0-3.74 6.02c-.567 1.04-1.05 2.14-1.55 3.22-.496 1.09-.903 2.22-1.27 3.38-3.14 9.36-3.14 19.5 0 28.8.369 1.15.827 2.26 1.27 3.38.446 1.11.974 2.19 1.54 3.23 1.09 2.09 2.34 4.1 3.75 6 5.39 7.29 12.8 12.8 21.4 15.9a47.6 47.6 0 0 0 6.15 1.74c2.03.422 4.09.707 6.17.853 3.97.306 7.96.094 11.9-.632 7.04-1.31 13.7-4.23 19.4-8.53a46.25 46.25 0 0 0 11.7-13c1.24-2.06 2.3-4.21 3.18-6.44.765-1.87 1.4-3.8 1.91-5.75.691-2.71 1.13-5.48 1.32-8.27.089-.955.07-1.69.102-2.18.031-.487.038-.746.038-.746s0 1.01-.07 2.93c-.27 4.83-1.33 9.58-3.14 14.1a45.02 45.02 0 0 1-3.18 6.48c-3.04 5.06-7.02 9.5-11.7 13.1-8.97 6.81-20.1 10.1-31.4 9.29-2.1-.156-4.18-.454-6.24-.892-2.1-.451-4.17-1.04-6.2-1.75a46.235 46.235 0 0 1-21.5-16 43.868 43.868 0 0 1-3.77-6.04c-.573-1.06-1.06-2.16-1.56-3.26-.503-1.1-.91-2.24-1.27-3.4a45.542 45.542 0 0 1 0-29c.369-1.16.827-2.28 1.27-3.4.445-1.12.98-2.19 1.55-3.25 1.1-2.11 2.36-4.13 3.78-6.04 5.43-7.34 12.9-12.9 21.5-16 2.03-.715 4.1-1.3 6.2-1.74 2.05-.426 4.12-.711 6.2-.853 3.99-.306 8-.094 11.9.632 7.08 1.33 13.7 4.28 19.5 8.62 4.71 3.58 8.69 8.02 11.7 13.1 1.24 2.07 2.3 4.24 3.18 6.49a44.22 44.22 0 0 1 3.14 14.1c.134 1.95.108 2.95.108 2.95z"/><path fill="#42B7BA" fill-opacity=".6" d="M285 214c-16.1 0-31.5-6.34-42.9-17.6-11.4-11.3-17.8-26.6-17.8-42.6s6.39-31.3 17.8-42.6c11.4-11.3 26.8-17.6 42.9-17.6.297 0 .582.117.792.326a1.108 1.108 0 0 1 0 1.572c-.21.209-.495.326-.792.326-11.5-.001-22.8 3.4-32.4 9.77-9.6 6.37-17.1 15.4-21.5 26-4.42 10.6-5.58 22.3-3.32 33.5 2.25 11.2 7.81 21.6 16 29.7s18.6 13.6 29.9 15.9c11.3 2.24 23.1 1.09 33.7-3.3 10.7-4.39 19.8-11.8 26.2-21.4 6.41-9.53 9.84-20.7 9.84-32.2 0-.295.118-.578.327-.786a1.123 1.123 0 0 1 1.912.786c-.018 16-6.41 31.3-17.8 42.5-11.4 11.3-26.8 17.6-42.8 17.7z"/><path fill="#1CBBBA" d="M112 62.4c.66 0 1.2-.532 1.2-1.19 0-.656-.536-1.19-1.2-1.19-.661 0-1.2.532-1.2 1.19 0 .656.536 1.19 1.2 1.19zm368-48c.661 0 1.2-.532 1.2-1.19 0-.656-.536-1.19-1.2-1.19-.66 0-1.2.532-1.2 1.19 0 .656.536 1.19 1.2 1.19zM455 246c.661 0 1.2-.532 1.2-1.19 0-.656-.536-1.19-1.2-1.19-.66 0-1.2.532-1.2 1.19 0 .657.536 1.19 1.2 1.19z"/><g opacity=".6"><g fill-rule="evenodd" clip-rule="evenodd"><path fill="#42B7BA" d="M285 48c-58.4 0-106 47.5-106 106 0 58.4 47.5 106 106 106s106-47.5 106-106c0-58.4-47.5-106-106-106zm0 214c-59.6 0-108-48.5-108-108 0-59.6 48.4-108 108-108s108 48.4 108 108c0 59.5-48.4 108-108 108zM212 42.8a4.12 4.12 0 1 1-8.241-.001A4.12 4.12 0 0 1 212 42.8zm371 1.3c0 2.28-1.85 4.12-4.13 4.12s-4.12-1.84-4.12-4.12 1.85-4.12 4.12-4.12A4.13 4.13 0 0 1 583 44.1zM162 218c0 1.02-.834 1.86-1.86 1.86-1.03 0-1.86-.832-1.86-1.86 0-1.03.83-1.86 1.86-1.86 1.03 0 1.86.833 1.86 1.86zM37.1 229c0 1.02-.834 1.86-1.86 1.86-1.03 0-1.86-.833-1.86-1.86 0-1.03.831-1.86 1.86-1.86 1.03 0 1.86.832 1.86 1.86zm3.6 53c0 1.02-.834 1.86-1.86 1.86-1.03 0-1.86-.833-1.86-1.86 0-1.03.831-1.86 1.86-1.86 1.03 0 1.86.833 1.86 1.86zm102.3-3c0 1.02-.833 1.86-1.86 1.86-1.03 0-1.86-.833-1.86-1.86 0-1.03.831-1.86 1.86-1.86 1.03 0 1.86.833 1.86 1.86z"/><path fill="#1CBBBA" d="M33.7 57.9c0 1.02-.834 1.86-1.86 1.86-1.03 0-1.86-.833-1.86-1.86 0-1.03.831-1.86 1.86-1.86 1.03 0 1.86.833 1.86 1.86z"/><g fill="#42B7BA"><path d="M547 156c0 1.02-.834 1.86-1.86 1.86-1.03 0-1.86-.833-1.86-1.86 0-1.03.831-1.86 1.86-1.86 1.03 0 1.86.832 1.86 1.86zM15.8 142c0 1.02-.834 1.86-1.86 1.86-1.03 0-1.86-.832-1.86-1.86 0-1.03.831-1.86 1.86-1.86 1.03 0 1.86.832 1.86 1.86zM484 77c0 1.02-.833 1.86-1.86 1.86-1.03 0-1.86-.833-1.86-1.86 0-1.03.831-1.86 1.86-1.86 1.03 0 1.86.833 1.86 1.86zm-63-47.1c0 1.02-.833 1.86-1.86 1.86-1.03 0-1.86-.833-1.86-1.86 0-1.03.831-1.86 1.86-1.86 1.03 0 1.86.833 1.86 1.86zM574 252c0 1.02-.834 1.86-1.86 1.86-1.03 0-1.86-.833-1.86-1.86 0-1.03.831-1.86 1.86-1.86 1.03 0 1.86.833 1.86 1.86zm-287 40c-8.26 0-16.5-.729-24.6-2.17-15.1-2.7-29.5-7.86-42.9-15.3-11.1-6.19-21.2-13.9-30.2-22.9l1.65-1.63c8.83 8.83 18.8 16.4 29.7 22.5 13.1 7.35 27.3 12.4 42.1 15.1 19 3.41 39 2.71 57.8-2.04 12.1-3.08 23.8-7.82 34.6-14.1l1.17 1.99c-11 6.39-22.9 11.2-35.2 14.3-11.1 2.82-22.6 4.24-34.2 4.24z"/><path d="M166 275c-7.19-7.14-13.7-14.9-19.5-23.1-10.7-15.4-18.8-32.3-23.8-50.4-4.2-15-6.28-30.5-6.21-46.1l2.86.008a164.99 164.99 0 0 0 6.1 45.3c4.98 17.8 12.9 34.4 23.4 49.6 13.5 19.4 31.6 36.1 52 48.1 13.2 7.79 27.5 13.7 42.5 17.6l-.728 2.75c-15.2-3.94-29.7-9.96-43.2-17.9a171.6 171.6 0 0 1-33.5-25.8z"/></g></g><mask id="b" width="22" height="112" x="401" y="84" maskUnits="userSpaceOnUse" style="mask-type:alpha"><path fill="#fff" d="M401 84.7h21.6v111H401v-111z"/></mask><g mask="url(#b)"><path fill="#42B7BA" fill-rule="evenodd" d="m416 196-2.21-.686c4.02-12.9 6.06-26.4 6.06-40 0-24.5-6.65-48.5-19.2-69.4l1.98-1.19c12.8 21.2 19.6 45.6 19.6 70.5 0 13.9-2.08 27.6-6.16 40.7z" clip-rule="evenodd"/></g><mask id="c" width="118" height="117" x="350" y="193" maskUnits="userSpaceOnUse" style="mask-type:alpha"><path fill="#fff" d="m448 194 18.8 18.7-97.8 97.1-18.8-18.7L448 194z"/></mask><g mask="url(#c)"><path fill="#42B7BA" fill-rule="evenodd" d="m364 304-1.33-2.52c14.9-7.79 28.5-17.8 40.5-29.7 21.5-21.4 36.8-48.1 44.2-77.2l2.78.68c-7.49 29.6-23 56.8-44.9 78.6-12.2 12.1-26.1 22.3-41.2 30.2z" clip-rule="evenodd"/></g><path fill="#42B7BA" fill-rule="evenodd" d="M150 155h-2.31c0-8.1.723-16.2 2.14-24.1 3.24-18 10-34.9 20.1-50.3 8.78-13.3 19.7-24.9 32.6-34.5 11.9-8.87 25.1-15.7 39.2-20.3 13.8-4.52 28.2-6.8 42.9-6.8 16.2 0 32 2.78 47.1 8.25l-.795 2.16c-14.8-5.39-30.4-8.12-46.3-8.12-14.4 0-28.6 2.25-42.2 6.69-13.8 4.53-26.8 11.3-38.5 20-12.6 9.4-23.4 20.8-32 33.9-9.94 15.1-16.6 31.7-19.8 49.4-1.4 7.77-2.11 15.7-2.11 23.7z" clip-rule="evenodd"/><path fill="#42B7BA" fill-rule="evenodd" d="m168 38.1-2.03-2.01c7.13-7.08 14.9-13.5 23.1-19.2 18.7-12.9 39.5-21.8 61.9-26.5 19.4-4.01 39.2-4.62 58.9-1.81 18.2 2.6 35.8 8.09 52.2 16.3 16.1 8.05 30.7 18.6 43.6 31.4 14.2 14.1 25.6 30.3 34 48.2l-2.6 1.2c-8.22-17.6-19.5-33.5-33.4-47.4-12.6-12.5-27-22.9-42.8-30.8-16.1-8.08-33.4-13.5-51.3-16-19.3-2.76-38.8-2.16-57.9 1.79-22 4.55-42.5 13.3-60.8 26-8.06 5.58-15.7 11.9-22.7 18.9z" clip-rule="evenodd"/></g><path fill="#1B2944" fill-opacity=".2" fill-rule="evenodd" d="M209 167c4.46 0 8.08 3.59 8.08 8.03s-3.62 8.03-8.08 8.03-8.08-3.59-8.08-8.03S204.54 167 209 167zm-3.56 8.62h-3.3c.264 3.04 2.54 5.52 5.5 6.11-1.28-1.79-2.05-3.9-2.2-6.11zm7.13 0h3.29c-.264 3.04-2.54 5.52-5.5 6.11 1.28-1.79 2.05-3.9 2.2-6.11zm-1.2 0h-4.73a10.77 10.77 0 0 0 2.28 5.82l.087.109.087-.109a10.73 10.73 0 0 0 2.28-5.82zm-3.81-7.28.081-.016c-1.28 1.79-2.05 3.9-2.2 6.11h-3.29c.262-3.02 2.5-5.48 5.42-6.09zm1.44.169-.087.109a10.73 10.73 0 0 0-2.28 5.82h4.73a10.754 10.754 0 0 0-2.28-5.82l-.087-.109zm1.39-.148-.027-.037c2.96.589 5.23 3.06 5.5 6.11h-3.3a11.89 11.89 0 0 0-2.18-6.07z" clip-rule="evenodd" opacity=".7"/><g fill-rule="evenodd" clip-rule="evenodd"><path fill="#1B2944" fill-opacity=".2" d="M294 72.1c0-1.09-.891-1.98-1.99-1.98h-11.4c-1.1 0-1.99.885-1.99 1.98v3.53c0 1.09.891 1.98 1.99 1.98h11.4c1.1 0 1.99-.885 1.99-1.98V72.1zm-10.2 6.14c1.1 0 1.99.885 1.99 1.98v3.18c0 1.09-.891 1.98-1.99 1.98h-3.2c-1.1 0-1.99-.885-1.99-1.98v-3.18c0-1.09.891-1.98 1.99-1.98h3.2zm8.17 0c1.1 0 1.99.885 1.99 1.98v3.18c0 1.09-.891 1.98-1.99 1.98h-3.2c-1.1 0-1.99-.885-1.99-1.98v-3.18c0-1.09.891-1.98 1.99-1.98h3.2zm-11.4 1.13h3.2a.85.85 0 0 1 .853.847v3.18a.85.85 0 0 1-.853.847h-3.2a.85.85 0 0 1-.853-.847v-3.18a.85.85 0 0 1 .853-.847zm11.4 0h-3.2a.85.85 0 0 0-.853.847v3.18a.85.85 0 0 0 .853.847h3.2a.85.85 0 0 0 .853-.847v-3.18a.85.85 0 0 0-.853-.847zm0-8.12h-11.4a.85.85 0 0 0-.853.847v3.53a.85.85 0 0 0 .853.847h11.4a.85.85 0 0 0 .853-.847v-3.53a.85.85 0 0 0-.853-.847zm-7.89 2.26a.992.992 0 0 0-.996-.988l-.067.002a.991.991 0 0 0-.935.987c0 .546.446.988.995.988l.068-.002a.992.992 0 0 0 .935-.987zM352 185c.392-.39 1.03-.39 1.42 0l2.49 2.47a.992.992 0 0 1 0 1.41l-2.49 2.47c-.393.39-1.03.39-1.42 0l-2.49-2.47a.992.992 0 0 1 0-1.41L352 185zm-3.31 8.16a1 1 0 0 0-1-.998h-4.52c-.555 0-1 .447-1 .998v4.49a1 1 0 0 0 1 .998h4.52c.555 0 1-.447 1-.998v-4.49zm7.28 0a1 1 0 0 0-1-.998h-4.52c-.555 0-1 .447-1 .998v4.49a1 1 0 0 0 1 .998h4.52c.555 0 1-.447 1-.998v-4.49zm-8.29 0h-4.52v4.49h4.52v-4.49zm2.76 0h4.52v4.49h-4.52v-4.49zm-1.76-7.24a1 1 0 0 0-1-.997h-4.52c-.555 0-1 .446-1 .997v4.49a1 1 0 0 0 1 .998h4.52c.555 0 1-.447 1-.998v-4.49zm4.02-.223-2.49 2.47 2.49 2.47 2.49-2.47-2.49-2.47zm-9.54.224h4.52v4.49h-4.52v-4.49z"/><path fill="#fff" d="M283 62.1h10.1c.734 0 1.33.596 1.33 1.33v4.79a1.33 1.33 0 0 1-1.33 1.33H283a1.33 1.33 0 0 1-1.33-1.33v-4.79c0-.735.596-1.33 1.33-1.33zm9.84 5.85v-4.26h-9.58v4.26h9.58z"/></g><g fill="#fff"><rect width="13.3" height="1.86" x="282" y="73" rx=".931"/><rect width="13.3" height="1.86" x="282" y="77.8" rx=".931"/><path fill-rule="evenodd" d="M280 56h17.8c1.46 0 2.65 1.19 2.65 2.65v23.7A2.655 2.655 0 0 1 297.8 85h-22.5c-2.12 0-3.84-1.72-3.84-3.84v-19a2.655 2.655 0 0 1 2.65-2.65h3.27v-.904c0-1.46 1.19-2.65 2.65-2.65zm.001 1.75h17.8a.901.901 0 0 1 .904.903v23.7a.901.901 0 0 1-.904.904h-19.3a3.8 3.8 0 0 0 .638-2.09v-22.5c0-.25.102-.474.266-.638a.901.901 0 0 1 .639-.265zm-6.83 4.46a.901.901 0 0 1 .904-.904h3.27v19.9a2.09 2.09 0 0 1-2.093 2.092 2.093 2.093 0 0 1-2.092-2.092v-19z" clip-rule="evenodd"/></g><path fill="#FF681E" d="M274 62.4h2.13V81a1.06 1.06 0 1 1-2.12 0V62.4z"/><path fill="#1CBBBA" d="M285 64.8h6.92v2.13H285zm49 29.6h6.42v6.42H334z"/><path fill="#FF681E" d="M334 109h6.42v6.42H334z"/><path fill="#5B2B83" d="M349 109h5.92v5.92H349z"/><path fill="#fff" fill-rule="evenodd" d="M350 91.5a1.723 1.723 0 0 1 2.44 0l4.89 4.89c.675.675.675 1.77 0 2.44l-4.89 4.89a1.723 1.723 0 0 1-2.44 0l-4.89-4.89a1.723 1.723 0 0 1 0-2.44L350 91.5zm-6.92 16a1.73 1.73 0 0 0-1.73-1.73h-8.88a1.73 1.73 0 0 0-1.73 1.73v8.89c0 .954.774 1.73 1.73 1.73h8.88a1.73 1.73 0 0 0 1.73-1.73v-8.89zm14.3 0a1.73 1.73 0 0 0-1.73-1.73h-8.89a1.73 1.73 0 0 0-1.73 1.73v8.89c0 .954.773 1.73 1.73 1.73h8.89a1.73 1.73 0 0 0 1.73-1.73v-8.89zm-16-.247h-8.88a.247.247 0 0 0-.247.247v8.89c0 .136.11.247.247.247h8.88a.247.247 0 0 0 .247-.247v-8.89a.247.247 0 0 0-.247-.247zm5.43 0h8.89c.136 0 .247.111.247.247v8.89a.248.248 0 0 1-.247.247h-8.89a.248.248 0 0 1-.247-.247v-8.89c0-.136.111-.247.247-.247zm-3.7-14.1a1.73 1.73 0 0 0-1.73-1.73h-8.88a1.73 1.73 0 0 0-1.73 1.73v8.89c0 .954.774 1.73 1.73 1.73h8.88a1.73 1.73 0 0 0 1.73-1.73v-8.89zm8.32-.618a.248.248 0 0 0-.35 0l-4.89 4.89a.246.246 0 0 0 0 .349l4.89 4.89a.249.249 0 0 0 .35 0l4.89-4.89a.246.246 0 0 0 0-.349l-4.89-4.89zm-18.9.372h8.88c.137 0 .247.11.247.247v8.89c0 .136-.11.247-.247.247h-8.88a.247.247 0 0 1-.247-.247v-8.89c0-.136.11-.247.247-.247zM361 137h10.2c.195 0 .383.078.521.216l7.66 7.66a.736.736 0 0 1 .216.521v15.3c0 1.82-1.47 3.29-3.29 3.29h-15.3c-1.82 0-3.29-1.47-3.29-3.29v-20.4c0-1.82 1.47-3.29 3.29-3.29zm17.1 8.7-7.23-7.23h-9.91c-1 0-1.82.813-1.82 1.82v20.4c0 1 .813 1.82 1.82 1.82h15.3c1 0 1.82-.813 1.82-1.82v-15z" clip-rule="evenodd"/><path fill="#FF681E" d="M373 141v2.94h2.94"/><path fill="#fff" d="M372 137c.383 0 .697.292.733.665l.003.071v6.92h6.92c.383 0 .698.292.733.666l.004.071a.737.737 0 0 1-.666.733l-.071.003h-7.66a.737.737 0 0 1-.733-.666l-.003-.07v-7.66c0-.406.329-.736.736-.736zm2 14a.737.737 0 0 1 .071 1.469l-.071.004h-10.2a.737.737 0 0 1-.071-1.47l.071-.003H374zm0 5a.737.737 0 0 1 .071 1.47l-.071.003h-10.2a.737.737 0 0 1-.071-1.469l.071-.004H374zm-8-10a.737.737 0 0 1 .07 1.47l-.07.003h-2.55a.737.737 0 0 1-.071-1.469l.071-.004H366z"/><path fill="#1CBBBA" d="M364 140h4.91v3.44h-6.87v-1.47c0-1.08.879-1.96 1.96-1.96z"/><path fill="#5B2B83" d="M361 159h15.7v.982c0 .542-.44.982-.982.982h-13.7a.982.982 0 0 1-.982-.982V159z"/><g fill="#fff"><path d="M346 212v-1.73c0-.295-.172-.675-.465-.799a10.474 10.474 0 0 1-2.276-1.316c.264.199-.009-.009-.068-.057a10.665 10.665 0 0 1-1.638-1.651c.205.258-.006-.011-.052-.072a10.566 10.566 0 0 1-1.053-1.762c-.041-.085-.079-.171-.117-.257.136.309-.019-.051-.049-.127a10.132 10.132 0 0 1-.611-2.36l.033.245a10.42 10.42 0 0 1 .001-2.75l-.034.246c.102-.74.283-1.46.541-2.17.03-.083.063-.165.095-.247.029-.073.16-.377.024-.064a10.025 10.025 0 0 1 1.082-1.897c.05-.071.103-.141.155-.211l.08-.103c-.195.251-.056.071-.011.016a10.517 10.517 0 0 1 1.541-1.536c.068-.056.137-.109.206-.163-.268.207-.008.008.056-.038a10.005 10.005 0 0 1 1.426-.868c.171-.087.345-.168.521-.246l.123-.052c-.285.12-.123.05-.06.025a10.46 10.46 0 0 1 2.571-.675l-.25.033c.928-.12 1.87-.12 2.8 0a161.97 161.97 0 0 1-.25-.033 10.748 10.748 0 0 1 2.451.626c.075.028.383.157.065.024a10.311 10.311 0 0 1 1.488.774 9.786 9.786 0 0 1 .653.443l.105.079c-.255-.192-.072-.055-.017-.011a10.402 10.402 0 0 1 1.726 1.72c-.21-.264-.008-.008.039.055a10.218 10.218 0 0 1 1.184 2.038c-.122-.28-.051-.121-.025-.059a10.136 10.136 0 0 1 .685 2.537l-.033-.246c.121.913.121 1.84 0 2.75l.034-.245c-.109.79-.308 1.56-.595 2.31-.034.088-.07.175-.106.262-.07.168.093-.214.02-.048l-.058.129a10.273 10.273 0 0 1-1.207 1.997c-.11.143.144-.181.032-.04l-.089.108a10.49 10.49 0 0 1-1.67 1.623c-.142.111.186-.14.042-.031l-.151.111a10.638 10.638 0 0 1-2.05 1.153c-.293.125-.465.504-.465.799v1.74a.94.94 0 0 0 1.879 0v-1.74l-.466.799c3.09-1.32 5.46-4.04 6.39-7.22.913-3.14.354-6.64-1.5-9.34-1.77-2.59-4.62-4.42-7.77-4.87-1.67-.237-3.37-.146-4.99.326-1.55.451-2.97 1.24-4.21 2.27-2.45 2.04-3.89 5.11-3.98 8.26-.098 3.36 1.41 6.68 4.02 8.85.857.713 1.8 1.31 2.84 1.75l-.465-.798v1.73c0 .504.427.925.939.925s.939-.421.939-.925zm0 4h7.91c.515 0 .944-.371.944-.817 0-.445-.429-.817-.944-.817H346c-.515 0-.944.372-.944.817 0 .446.429.817.944.817zm1 3h4.612c.524 0 .962-.371.962-.817 0-.445-.438-.817-.962-.817H347c-.524 0-.962.372-.962.817 0 .446.438.817.962.817z"/><path d="M350 207c.332 0 .708-.05 1.13-.15a1.388 1.388 0 0 0 1.07-1.35.764.764 0 0 0-.953-.74c-.449.114-.819.171-1.11.171-1.35 0-2.15-.651-2.41-1.95h1.82a.715.715 0 0 0 0-1.429h-1.95l-.015-.265v-.377l.015-.281h2.43a.707.707 0 1 0 0-1.413h-2.32c.115-.717.37-1.26.765-1.64.395-.378.898-.566 1.51-.566.325 0 .638.046.938.14l.091.03a.982.982 0 0 0 1.24-.572.96.96 0 0 0-.611-1.274c-.675-.209-1.23-.314-1.66-.314-1.22 0-2.23.376-3.04 1.13-.81.752-1.31 1.78-1.49 3.07h-.291a.706.706 0 1 0 0 1.413h.164l-.015.425c0 .209.01.375.03.498h-.171a.715.715 0 1 0 0 1.429h.313c.205 1.26.703 2.24 1.49 2.95.791.712 1.8 1.07 3.02 1.07z"/></g><circle cx="339" cy="215" r="3.27" fill="#1CBBBA"/><circle cx="360" cy="213" r="1.91" fill="#FF681E"/><circle cx="338" cy="192" r="1.36" fill="#5B2B83"/><path fill="#fff" d="M287 222a.79.79 0 1 1 .631 1.449c-5.32 2.32-8.44 7.91-7.63 13.7.816 5.75 5.37 10.2 11.1 11 5.76.75 11.3-2.43 13.6-7.78a.794.794 0 0 1 1.461.619c-2.54 6-8.77 9.58-15.2 8.74-6.46-.842-11.6-5.89-12.5-12.3a14.459 14.459 0 0 1 8.56-15.3z"/><path fill="#fff" fill-rule="evenodd" d="M292 222c0-.437.355-.791.792-.791 3.85 0 7.54 1.53 10.3 4.25 2.72 2.72 4.25 6.41 4.25 10.3a.79.79 0 0 1-.791.791h-13.7a.792.792 0 0 1-.792-.791v-13.7zm1.74.826-.161-.011v12.1h12.1l-.011-.161c-.221-3-1.48-5.84-3.58-8.02l-.167-.17a12.94 12.94 0 0 0-8.19-3.75z" clip-rule="evenodd"/><path fill="#FF681E" d="M304 234c0-2.52-1-4.93-2.78-6.72a9.507 9.507 0 0 0-6.72-2.78v9.5h9.5z"/><path fill="#5B2B83" d="M294 246c1.68 0 3.29-.667 4.48-1.85s1.85-2.8 1.85-4.48H294V246z"/><path fill="#1CBBBA" d="M290 224v22.8c-5.4-.992-9.5-5.72-9.5-11.4s4.09-10.4 9.5-11.4zm-50-1a13.894 13.894 0 0 1-2.93 7.52l-.112.141-.112-.141a13.94 13.94 0 0 1-2.93-7.52h6.08zm-7-5c.213-2.75 1.23-5.36 2.93-7.53l.112-.141.112.141c1.7 2.17 2.72 4.8 2.93 7.53h-6.08z"/><path fill="#fff" fill-rule="evenodd" d="M236 206c-8.01 0-14.5 6.49-14.5 14.5S227.99 235 236 235s14.5-6.49 14.5-14.5S244.01 206 236 206zm6.39 15.6h5.91c-.475 5.5-4.55 9.97-9.86 11 2.3-3.23 3.67-7.04 3.95-11zm-12.8 0h-5.91c.475 5.5 4.55 9.97 9.86 11a21.68 21.68 0 0 1-3.96-11zm2.15 0 8.49.001a19.427 19.427 0 0 1-4.09 10.5l-.156.196-.156-.196c-2.37-3.03-3.8-6.69-4.09-10.5zm6.83-13.2-.144-.03a21.68 21.68 0 0 1 3.96 11h5.91c-.47-5.45-4.48-9.89-9.72-11zm-2.58.304.156.197c2.38 3.03 3.8 6.69 4.09 10.5h-8.49c.296-3.83 1.72-7.49 4.09-10.5l.156-.197zm-2.49-.266.048-.068c-5.31 1.06-9.39 5.54-9.86 11h5.91c.281-3.97 1.64-7.76 3.9-11z" clip-rule="evenodd"/><path fill="#5B2B83" d="M231 211s-1.82 3.3-2.22 7.67h-3.5s.572-5.62 5.72-7.67z"/><path fill="#FF681E" d="M242 211s1.82 3.3 2.22 7.67h3.5s-.572-5.62-5.72-7.67z"/><path fill="#5B2B83" d="M231 230s-1.82-3.3-2.22-7.67h-3.5s.572 5.62 5.72 7.67z"/><path fill="#FF681E" d="M242 230s1.82-3.3 2.22-7.67h3.5s-.572 5.62-5.72 7.67z"/><path fill="#fff" d="M207 165c4.04 0 7.33 3.22 7.43 7.24l.003.195v3.21a1.02 1.02 0 0 1-1.02 1.02c-.529 0-.964-.404-1.01-.92l-.005-.098v-3.21c0-2.93-2.33-5.31-5.23-5.4l-.168-.002h-12.8c-2.93 0-5.31 2.33-5.4 5.23l-.003.168v3.21a1.02 1.02 0 0 1-1.02 1.02c-.53 0-.965-.404-1.01-.92l-.005-.098v-3.21c0-4.04 3.22-7.33 7.24-7.43l.195-.003h12.8z"/><path fill="#fff" fill-rule="evenodd" d="M193 154c0-4.11 3.33-7.44 7.44-7.44s7.44 3.33 7.44 7.44-3.33 7.44-7.44 7.44S193 158.11 193 154zm12.8.001c0-2.98-2.42-5.4-5.4-5.4-2.98 0-5.4 2.42-5.4 5.4 0 2.98 2.42 5.4 5.4 5.4 2.98 0 5.4-2.42 5.4-5.4z" clip-rule="evenodd"/><path fill="#1CBBBA" d="M210 176v-2.94c0-2.5-1.98-4.53-4.41-4.53h-11.5c-2.44 0-4.41 2.03-4.41 4.53V176"/><circle cx="200" cy="154" r="4.07" fill="#FF681E"/><path fill="#fff" d="M217 166a1.019 1.019 0 0 1 1.24-.732 7.45 7.45 0 0 1 5.58 7l.003.199v3.21a1.02 1.02 0 0 1-1.02 1.02c-.529 0-.964-.404-1.01-.92l-.005-.098v-3.21a5.394 5.394 0 0 0-4.05-5.22 1.018 1.018 0 0 1-.732-1.24zm-7-19c.14-.545.695-.874 1.24-.734a7.436 7.436 0 0 1 5.59 7.2c0 3.4-2.3 6.36-5.59 7.2a1.02 1.02 0 0 1-.506-1.974 5.394 5.394 0 0 0 4.06-5.23c0-2.47-1.67-4.62-4.06-5.23a1.02 1.02 0 0 1-.734-1.24z"/><path fill="#5B2B83" d="M209 149c2.62 0 4.75 1.82 4.75 4.07s-2.13 4.07-4.75 4.07v-8.15zm7 20c1.95.515 3.39 2.47 3.39 4.81v3.21h-3.4l.001-8.02z"/><path fill="#fff" d="M234 103a.829.829 0 0 1 .08 1.654l-.08.004h-19.4a2.76 2.76 0 0 0-2.76 2.76.83.83 0 1 1-1.658 0c0-2.4 1.91-4.35 4.28-4.42l.138-.002H234z"/><path fill="#fff" fill-rule="evenodd" d="M214 81h19.4c.458 0 .829.371.829.829v28.7a.829.829 0 0 1-.829.829H214c-2.44 0-4.42-1.98-4.42-4.42v-21.6c0-2.44 1.98-4.42 4.42-4.42zm18.6 28.7V82.6H214c-1.49 0-2.7 1.17-2.76 2.64l-.003.12v21.6a2.76 2.76 0 0 0 2.76 2.76h18.6z" clip-rule="evenodd"/><path fill="#1CBBBA" d="M215 84.6h9.4v16h-11.1V86.2c0-.916.742-1.66 1.66-1.66z"/><path fill="#5B2B83" d="M226 84.6h4.97v16H226z"/><path fill="#FF681E" d="M216 105h15.5v3.32H216a1.661 1.661 0 0 1 0-3.32z"/><path fill="#fff" d="M221 96.9a.894.894 0 1 1-1.788.002A.894.894 0 0 1 221 96.9zm-1-9.5c-1.82 0-3.29 1.47-3.29 3.29v.001a.896.896 0 0 0 1.791 0 1.501 1.501 0 1 1 1.5 1.5.895.895 0 0 0-.895.894v.96a.895.895 0 0 0 1.791 0v-.188a3.3 3.3 0 0 0 2.4-3.17c0-1.82-1.48-3.29-3.29-3.29zm79 55.6-12.3-6.66a4.908 4.908 0 0 0-4.6 0L269.4 143a3.526 3.526 0 0 0-1.05 1.25 3.482 3.482 0 0 0-.362 1.59v22.9a3.254 3.254 0 0 0 3.115 3.39h7.55v-13.7h11.7v13.7h6.85a3.247 3.247 0 0 0 2.24-1.04c.581-.624.895-1.45.873-2.3v-23a3.482 3.482 0 0 0-1.33-2.81z"/></g><defs><clipPath id="a"><path fill="#fff" d="M0 0h600v300H0z"/></clipPath></defs></svg>